<?xml version="1.0" encoding="iso-8859-1"?>
<!-- Generator: Adobe Illustrator 19.0.0, SVG Export Plug-In . SVG Version: 6.00 Build 0)  -->
<svg version="1.1" id="Capa_1" xmlns="http://www.w3.org/2000/svg" xmlns:xlink="http://www.w3.org/1999/xlink" x="0px" y="0px"
	 viewBox="0 0 512 512" style="enable-background:new 0 0 512 512;" xml:space="preserve">
<g>
	<g>
		<path d="M0,120.904v119.953c0,8.284,6.716,15,15,15s15-6.716,15-15l0.866-168.948C12.623,80.68,0,99.344,0,120.904z"/>
	</g>
</g>
<g>
	<g>
		<path d="M481.134,71.909L482,209.044v31.813c0,8.284,6.716,15,15,15s15-6.716,15-15V120.904
			C512,99.344,499.377,80.68,481.134,71.909z"/>
	</g>
</g>
<g>
	<g>
		<path d="M406.134,20.375H105.866c-24.813,0-45,20.187-45,45v321.298c0,20.051,13.184,37.075,31.337,42.873v21.466
			c0,3.307,0.407,6.519,1.156,9.598c4.325,17.776,20.37,31.016,39.458,31.016c18.705,0,34.489-12.715,39.184-29.953
			c0.926-3.4,1.43-6.972,1.43-10.661v-19.339H338.57v19.339c0,3.689,0.504,7.261,1.43,10.661
			c4.696,17.238,20.479,29.953,39.185,29.953c19.087,0,35.132-13.24,39.457-31.016c0.749-3.079,1.156-6.292,1.156-9.598v-21.467
			h-0.001c18.152-5.798,31.337-22.822,31.337-42.873V65.375C451.134,40.562,430.947,20.375,406.134,20.375z M156.356,353.816
			c0,8.284-6.716,15-15,15s-15-6.716-15-15V317.84c0-8.284,6.716-15,15-15s15,6.716,15,15V353.816z M385.644,353.817
			c0,8.284-6.716,15-15,15s-15-6.716-15-15v-35.976c0-8.284,6.716-15,15-15s15,6.716,15,15V353.817z M421.134,230.141H90.866
			v-111.04h330.268V230.141z"/>
	</g>
</g>
<g>
</g>
<g>
</g>
<g>
</g>
<g>
</g>
<g>
</g>
<g>
</g>
<g>
</g>
<g>
</g>
<g>
</g>
<g>
</g>
<g>
</g>
<g>
</g>
<g>
</g>
<g>
</g>
<g>
</g>
</svg>
